<svg xmlns="http://www.w3.org/2000/svg" viewBox="0 0 560 480" role="img" aria-label="Ilustração da nutricionista">
  <rect width="560" height="480" rx="24" fill="#F5F5F5"/>
  <rect x="40" y="40" width="480" height="400" rx="22" fill="#FFFFFF"/>
  <circle cx="280" cy="170" r="72" fill="#E8F3EE"/>
  <path d="M220 170c0-55 32-100 80-100 48 0 80 45 80 100 0 64-46 110-80 110s-80-46-80-110Z" fill="#2F7D5E" opacity="0.18"/>
  <path d="M200 286c18-36 60-56 96-56s78 20 96 56" fill="#F4A261" opacity="0.5"/>
  <rect x="128" y="300" width="304" height="68" rx="14" fill="#2F7D5E" opacity="0.15"/>
  <path d="M170 360c24 5 48 17 72 35 18 13 34 20 48 20 15 0 31-7 49-20 25-18 49-31 73-35" fill="none" stroke="#2F7D5E" stroke-width="10" stroke-linecap="round"/>
  <path d="M126 120c25 16 44 30 60 58" fill="none" stroke="#F4A261" stroke-width="10" stroke-linecap="round"/>
  <path d="M430 116c-17 20-34 47-45 82" fill="none" stroke="#F4A261" stroke-width="10" stroke-linecap="round"/>
</svg>
