<svg xmlns="http://www.w3.org/2000/svg" viewBox="0 0 480 480" role="img" aria-label="Ilustração de atendimento nutricional">
  <rect width="480" height="480" rx="24" fill="#F5F5F5"/>
  <rect x="32" y="32" width="416" height="416" rx="20" fill="#FFFFFF"/>
  <rect x="72" y="88" width="150" height="210" rx="16" fill="#E8F3EE"/>
  <rect x="258" y="110" width="130" height="120" rx="16" fill="#2F7D5E" opacity="0.15"/>
  <rect x="258" y="250" width="130" height="90" rx="16" fill="#F4A261" opacity="0.25"/>
  <path d="M112 190c0-42 26-74 66-74s66 32 66 74c0 55-40 92-66 92s-66-37-66-92Z" fill="#2F7D5E" opacity="0.18"/>
  <path d="M162 116c15 9 26 18 34 34" fill="none" stroke="#F4A261" stroke-width="8" stroke-linecap="round"/>
  <path d="M122 304c19 10 43 15 72 15 31 0 55-5 75-15" fill="none" stroke="#2F7D5E" stroke-width="10" stroke-linecap="round"/>
</svg>
